<svg xmlns="http://www.w3.org/2000/svg" id="CVS_logo" width="30" height="30" viewBox="0 0 30 30">
    <defs>
        <style>
            .cls-2{fill:#fff;stroke:#fff;stroke-width:.7px}
        </style>
    </defs>
    <g id="NetApp___Spot_Products_logos">
        <g id="Group-29">
            <circle id="Oval-8" cx="15" cy="15" r="15" fill="#8e52ff"/>
            <g id="noun_1241392_cc" transform="translate(8 7.667)">
                <g id="Group-36">
                    <path id="Shape" d="M38.415 98.071c.264 0 .477-.149.477-.333s-.214-.333-.477-.333h-4.353c-.264 0-.477.149-.477.333s.214.333.477.333z" class="cls-2" transform="translate(-28.92 -83.876)"/>
                    <path id="Shape-2" d="M6.2 0a3.522 3.522 0 0 0-3.45 2.918A3.048 3.048 0 0 0 3.023 9H10v-.551l-6.977-.092a2.411 2.411 0 0 1 0-4.821.319.319 0 0 0 .318-.291A2.888 2.888 0 0 1 6.2.643a2.685 2.685 0 0 1 2 .864.316.316 0 0 0 .343.075 2.543 2.543 0 0 1 .84-.136 2.24 2.24 0 0 1 2.231 1.964.321.321 0 0 0 .209.266 2.424 2.424 0 0 1-.845 4.681L10 8.449V9h.977a3.054 3.054 0 0 0 1.238-5.831A2.883 2.883 0 0 0 9.386.8a3.186 3.186 0 0 0-.875.131A3.33 3.33 0 0 0 6.2 0z" class="cls-2"/>
                    <path id="Shape-3" d="M21.523 79.947c0 .184.214.333.477.333h7.7c.264 0 .477-.149.477-.333s-.214-.333-.477-.333H22c-.263 0-.477.149-.477.333z" class="cls-2" transform="translate(-18.534 -68.556)"/>
                </g>
            </g>
        </g>
    </g>
</svg>
